<svg fill="#073F53" xmlns="http://www.w3.org/2000/svg" viewBox="0.25 0.25 20.5 20.5">
  <circle cx="10.5" cy="1.5" r="1.25" />
  <circle cx="7.5" cy="4.5" r="1.25" />
  <circle cx="10.5" cy="4.5" r="1.25" />
  <circle cx="13.5" cy="4.5" r="1.25" />
  <circle cx="1.5" cy="10.5" r="1.25" />
  <circle cx="4.5" cy="10.5" r="1.25" />
  <circle cx="7.5" cy="10.5" r="1.25" />
  <circle cx="10.5" cy="10.5" r="1.25" />
  <circle cx="13.5" cy="10.5" r="1.25" />
  <circle cx="16.5" cy="10.5" r="1.25" />
  <circle cx="19.5" cy="10.5" r="1.25" />
  <circle cx="4.5" cy="7.5" r="1.25" />
  <circle cx="7.5" cy="7.5" r="1.25" />
  <circle cx="10.5" cy="7.5" r="1.25" />
  <circle cx="13.5" cy="7.5" r="1.25" />
  <circle cx="16.5" cy="7.5" r="1.25" />
  <circle cx="4.5" cy="13.5" r="1.25" />
  <circle cx="7.5" cy="13.5" r="1.25" />
  <circle cx="10.5" cy="13.5" r="1.25" />
  <circle cx="13.5" cy="13.5" r="1.25" />
  <circle cx="16.5" cy="13.5" r="1.25" />
  <circle cx="4.5" cy="16.5" r="1.25" />
  <circle cx="7.5" cy="16.5" r="1.25" />
  <circle cx="13.5" cy="16.5" r="1.25" />
  <circle cx="16.5" cy="16.5" r="1.25" />
  <circle cx="4.5" cy="19.5" r="1.25" />
  <circle cx="16.5" cy="19.5" r="1.25" />
</svg>