<svg fill="#073F53"
  viewBox="0 0 48 48" xmlns="http://www.w3.org/2000/svg">
  <path
    d="M3.02703 20.9731C1.40541 20.9731 0 22.3786 0 24.0002C0 25.6218 1.40541 27.0272 3.02703 27.0272C4.64865 27.0272 6.05405 25.7299 6.05405 24.0002C6.05405 22.3786 4.64865 20.9731 3.02703 20.9731Z"></path>
  <path
    d="M10.0544 41.9463C8.43275 41.9463 7.02734 43.2436 7.02734 44.9733C7.02734 46.5949 8.43275 48.0003 10.0544 48.0003C11.676 48.0003 13.0814 46.703 13.0814 44.9733C13.0814 43.3517 11.676 41.9463 10.0544 41.9463Z"></path>
  <path
    d="M13.0814 38.0544C13.0814 36.4327 11.676 35.0273 10.0544 35.0273C8.43275 35.0273 7.02734 36.4327 7.02734 38.0544C7.02734 39.676 8.43275 41.0814 10.0544 41.0814C11.676 40.9733 13.0814 39.676 13.0814 38.0544Z"></path>
  <path
    d="M13.0814 31.027C13.0814 29.4054 11.676 28 10.0544 28C8.43275 28 7.02734 29.4054 7.02734 31.027C7.02734 32.6487 8.43275 34.0541 10.0544 34.0541C11.676 34.0541 13.0814 32.6487 13.0814 31.027Z"></path>
  <path
    d="M13.0814 24.0002C13.0814 22.3786 11.676 20.9731 10.0544 20.9731C8.43275 20.9731 7.02734 22.3786 7.02734 24.0002C7.02734 25.6218 8.43275 27.0272 10.0544 27.0272C11.676 27.0272 13.0814 25.6218 13.0814 24.0002Z"></path>
  <path
    d="M13.0814 16.9728C13.0814 15.3512 11.676 13.9458 10.0544 13.9458C8.43275 13.9458 7.02734 15.3512 7.02734 16.9728C7.02734 18.5944 8.43275 19.9999 10.0544 19.9999C11.676 19.9999 13.0814 18.7026 13.0814 16.9728Z"></path>
  <path
    d="M16.9723 35.0273C15.3507 35.0273 13.9453 36.4327 13.9453 38.0544C13.9453 39.676 15.2426 41.0814 16.9723 41.0814C18.594 41.0814 19.9994 39.7841 19.9994 38.0544C19.9994 36.3246 18.7021 35.0273 16.9723 35.0273Z"></path>
  <path
    d="M19.9994 31.027C19.9994 29.4054 18.594 28 16.9723 28C15.3507 28 13.9453 29.4054 13.9453 31.027C13.9453 32.6487 15.2426 34.0541 16.9723 34.0541C18.7021 34.0541 19.9994 32.6487 19.9994 31.027Z"></path>
  <path
    d="M19.9994 24.0002C19.9994 22.3786 18.594 20.9731 16.9723 20.9731C15.3507 20.9731 13.9453 22.3786 13.9453 24.0002C13.9453 25.6218 15.2426 27.0272 16.9723 27.0272C18.7021 27.0272 19.9994 25.6218 19.9994 24.0002Z"></path>
  <path
    d="M16.9723 19.9999C18.594 19.9999 19.9994 18.7026 19.9994 16.9728C19.9994 15.3512 18.594 13.9458 16.9723 13.9458C15.3507 13.9458 13.9453 15.3512 13.9453 16.9728C14.0534 18.7026 15.3507 19.9999 16.9723 19.9999Z"></path>
  <path
    d="M19.9994 10.0544C19.9994 8.43275 18.594 7.02734 16.9723 7.02734C15.3507 7.02734 13.9453 8.32464 13.9453 10.0544C13.9453 11.676 15.2426 13.0814 16.9723 13.0814C18.7021 13.0814 19.9994 11.676 19.9994 10.0544Z"></path>
  <path
    d="M20.9727 31.027C20.9727 32.6487 22.27 34.0541 23.9997 34.0541C25.6213 34.0541 27.0267 32.6487 27.0267 31.027C27.0267 29.4054 25.6213 28 23.9997 28C22.3781 28 20.9727 29.2973 20.9727 31.027Z"></path>
  <path
    d="M20.9727 24.0002C20.9727 25.6218 22.27 27.0272 23.9997 27.0272C25.6213 27.0272 27.0267 25.7299 27.0267 24.0002C27.0267 22.3786 25.6213 20.9731 23.9997 20.9731C22.3781 20.9731 20.9727 22.3786 20.9727 24.0002Z"></path>
  <path
    d="M20.9727 16.9728C20.9727 18.5944 22.27 19.9999 23.9997 19.9999C25.6213 19.9999 27.0267 18.7026 27.0267 16.9728C27.0267 15.3512 25.6213 13.9458 23.9997 13.9458C22.3781 13.9458 20.9727 15.3512 20.9727 16.9728Z"></path>
  <path
    d="M20.9727 10.0544C20.9727 11.676 22.27 13.0814 23.9997 13.0814C25.6213 13.0814 27.0267 11.7841 27.0267 10.0544C27.0267 8.43275 25.6213 7.02734 23.9997 7.02734C22.3781 7.02734 20.9727 8.32464 20.9727 10.0544Z"></path>
  <path
    d="M27.0267 3.02703C27.0267 1.2973 25.7294 0 23.9997 0C22.3781 0 20.9727 1.2973 20.9727 3.02703C20.9727 4.64865 22.27 6.05405 23.9997 6.05405C25.7294 6.05405 27.0267 4.64865 27.0267 3.02703Z"></path>
  <path
    d="M28 38.0544C28 39.676 29.4054 41.0814 31.027 41.0814C32.6486 41.0814 34.0541 39.7841 34.0541 38.0544C34.0541 36.4327 32.6486 35.0273 31.027 35.0273C29.2973 35.0273 28 36.3246 28 38.0544Z"></path>
  <path
    d="M28 31.027C28 32.6487 29.4054 34.0541 31.027 34.0541C32.6486 34.0541 34.0541 32.6487 34.0541 31.027C34.0541 29.4054 32.6486 28 31.027 28C29.2973 28 28 29.2973 28 31.027Z"></path>
  <path
    d="M28 24.0002C28 25.6218 29.4054 27.0272 31.027 27.0272C32.6486 27.0272 34.0541 25.7299 34.0541 24.0002C34.0541 22.3786 32.6486 20.9731 31.027 20.9731C29.2973 20.9731 28 22.3786 28 24.0002Z"></path>
  <path
    d="M28 16.9728C28 18.5944 29.4054 19.9999 31.027 19.9999C32.6486 19.9999 34.0541 18.7026 34.0541 16.9728C34.0541 15.3512 32.6486 13.9458 31.027 13.9458C29.2973 13.9458 28 15.3512 28 16.9728Z"></path>
  <path
    d="M31.027 13.0814C32.6486 13.0814 34.0541 11.7841 34.0541 10.0544C34.0541 8.43275 32.6486 7.02734 31.027 7.02734C29.4054 7.02734 28 8.32464 28 10.0544C28 11.676 29.2973 13.0814 31.027 13.0814Z"></path>
  <path
    d="M35.0273 44.9733C35.0273 46.5949 36.4327 48.0003 38.0544 48.0003C39.676 48.0003 41.0814 46.703 41.0814 44.9733C41.0814 43.3517 39.676 41.9463 38.0544 41.9463C36.3246 41.9463 35.0273 43.3517 35.0273 44.9733Z"></path>
  <path
    d="M35.0273 38.0544C35.0273 39.676 36.4327 41.0814 38.0544 41.0814C39.676 41.0814 41.0814 39.7841 41.0814 38.0544C41.0814 36.4327 39.676 35.0273 38.0544 35.0273C36.3246 35.0273 35.0273 36.3246 35.0273 38.0544Z"></path>
  <path
    d="M35.0273 31.027C35.0273 32.6487 36.4327 34.0541 38.0544 34.0541C39.676 34.0541 41.0814 32.6487 41.0814 31.027C41.0814 29.4054 39.676 28 38.0544 28C36.3246 28 35.0273 29.2973 35.0273 31.027Z"></path>
  <path
    d="M35.0273 24.0002C35.0273 25.6218 36.4327 27.0272 38.0544 27.0272C39.676 27.0272 41.0814 25.7299 41.0814 24.0002C41.0814 22.3786 39.676 20.9731 38.0544 20.9731C36.3246 20.9731 35.0273 22.3786 35.0273 24.0002Z"></path>
  <path
    d="M38.0544 19.9999C39.676 19.9999 41.0814 18.7026 41.0814 16.9728C41.0814 15.3512 39.676 13.9458 38.0544 13.9458C36.4327 13.9458 35.0273 15.3512 35.0273 16.9728C35.0273 18.7026 36.3246 19.9999 38.0544 19.9999Z"></path>
  <path
    d="M44.9723 27.0272C46.594 27.0272 47.9994 25.7299 47.9994 24.0002C47.9994 22.3786 46.594 20.9731 44.9723 20.9731C43.3507 20.9731 41.9453 22.3786 41.9453 24.0002C41.9453 25.6218 43.3507 27.0272 44.9723 27.0272Z"></path>
</svg>