<?xml version="1.0" standalone="no"?>
<!DOCTYPE svg PUBLIC "-//W3C//DTD SVG 20010904//EN"
 "http://www.w3.org/TR/2001/REC-SVG-20010904/DTD/svg10.dtd">
<svg version="1.0" xmlns="http://www.w3.org/2000/svg" viewBox="0 -80 812 812" preserveAspectRatio="xMidYMid meet">
<g transform="translate(0,341) scale(0.1,-0.1)"
fill="#f53855">
<path d="M7347 3386 c-92 -33 -207 -146 -287 -282 -169 -286 -287 -593 -350
-911 l-22 -111 -227 -6 c-124 -4 -244 -11 -265 -17 -43 -12 -96 -58 -96 -84 0
-84 137 -146 369 -165 142 -12 155 -21 153 -107 -3 -117 -33 -522 -48 -642
-26 -205 -76 -322 -189 -436 -95 -96 -242 -174 -301 -159 -32 8 -71 55 -84
102 -5 20 -10 105 -10 187 0 155 17 288 75 600 17 92 26 177 27 248 0 99 -2
111 -28 165 -41 82 -93 115 -185 120 -62 4 -77 1 -133 -27 -109 -53 -164 -130
-302 -419 -156 -325 -199 -402 -217 -382 -2 3 4 61 15 130 28 191 56 469 53
531 -6 107 -54 158 -159 166 -125 10 -215 -57 -254 -190 -24 -78 -77 -393
-116 -683 -13 -100 -31 -196 -40 -213 -37 -70 -168 -96 -261 -51 -50 24 -106
87 -124 139 -18 55 -13 176 10 254 11 39 50 137 85 219 93 213 125 314 125
395 1 110 -38 142 -183 151 -167 9 -215 -30 -301 -247 -144 -361 -392 -973
-419 -1033 -17 -37 -34 -65 -38 -63 -16 10 1 694 21 888 14 128 8 312 -10 347
-41 78 -120 116 -230 108 -103 -8 -184 -58 -220 -137 -14 -31 -16 -88 -16
-441 0 -395 -1 -406 -22 -445 -64 -119 -213 -180 -347 -141 -133 39 -207 186
-185 368 12 98 38 165 201 523 76 164 79 183 42 224 -24 27 -40 33 -99 43
-109 16 -198 6 -248 -28 -23 -16 -50 -45 -61 -63 -18 -31 -111 -251 -171 -406
-13 -33 -69 -172 -125 -310 -56 -137 -110 -273 -120 -301 -10 -28 -38 -93 -61
-145 l-44 -94 -7 45 c-3 25 -2 187 3 360 15 569 16 862 1 888 -16 29 -69 52
-116 52 -66 0 -236 -38 -266 -60 -17 -12 -40 -40 -53 -63 -20 -38 -22 -58 -25
-227 -1 -102 1 -282 5 -400 5 -119 5 -245 1 -280 -28 -253 -350 -490 -666
-490 -100 0 -149 13 -194 50 -34 28 -84 117 -94 168 -5 27 -3 28 66 50 264 86
528 299 639 519 65 127 87 236 70 344 -36 231 -260 396 -520 382 -284 -15
-535 -242 -669 -603 -98 -263 -117 -586 -49 -830 23 -84 77 -196 118 -249 40
-50 128 -108 211 -140 58 -22 81 -25 205 -25 147 -1 197 8 335 60 211 79 424
225 542 371 l53 65 12 -103 c25 -208 49 -291 102 -352 110 -125 339 -64 476
128 26 36 81 138 122 227 83 179 164 308 194 308 12 0 26 -15 39 -40 77 -152
212 -194 430 -134 52 14 109 30 125 34 17 4 60 19 96 33 l66 25 28 -202 c31
-223 48 -283 105 -355 54 -69 111 -94 198 -89 90 5 150 36 238 123 93 92 171
213 275 430 61 127 89 175 101 175 11 0 28 -21 47 -58 38 -75 86 -117 157
-138 66 -19 111 -15 262 22 57 14 107 23 110 19 3 -3 7 -54 8 -114 3 -184 34
-319 93 -404 75 -110 186 -95 312 41 45 48 71 92 143 248 124 264 192 398 280
553 42 73 76 136 76 138 0 2 12 21 26 41 l26 37 -9 -170 c-14 -297 -10 -610
10 -685 24 -92 66 -168 110 -204 37 -29 43 -31 125 -31 81 1 98 5 242 59 244
91 361 159 491 283 l56 53 19 -49 c42 -110 144 -215 269 -275 98 -47 147 -59
240 -59 185 1 377 83 627 270 185 137 274 283 254 417 -9 56 -27 76 -69 76
-42 0 -87 -25 -199 -110 -100 -76 -299 -183 -413 -221 -101 -34 -195 -33 -256
3 -25 15 -59 44 -74 64 -61 80 -105 260 -105 429 0 332 115 643 266 716 45 21
52 22 203 13 223 -13 448 -11 497 4 53 16 121 61 145 98 26 40 25 113 -2 148
-43 55 -64 59 -329 67 -135 4 -250 8 -257 8 -7 1 12 36 41 79 154 224 237 493
236 770 -1 253 -72 407 -223 482 -68 34 -143 39 -210 16z m113 -426 c52 -52
53 -133 5 -279 -56 -166 -257 -562 -304 -598 -9 -7 -33 -13 -54 -13 -65 0 -65
17 -8 241 86 336 175 571 242 638 37 38 88 42 119 11z m-6603 -1431 c38 -14
81 -56 105 -103 28 -54 20 -122 -25 -220 -63 -135 -168 -248 -271 -290 -48
-20 -165 -21 -190 -3 -29 21 -18 156 23 277 84 248 231 387 358 339z"/>
</g>
<text x="0" y="610" fill="black" style="font-size:220px;font-family:sans-serif;">Preview</text>
</svg>
