<svg
    xmlns="http://www.w3.org/2000/svg"
    fill="#ffc600"
    viewBox="0 0 24 24"
    stroke-width="1"
    stroke="#ed1c24">
    <text
        x="2.25"
        y="6"
        font-size="5"
        stroke="none"
        fill="#ed1c24">Featured</text>
    <text
        x="3"
        y="10.75"
        font-size="5"
        stroke="none"
        fill="#ed1c24">Listings</text>
    <path
        stroke-linecap="round"
        stroke-linejoin="round"
        d="M3.75 15.75A2.25 2.25 0 0 1 6 13.5h2.25a2.25 2.25 0 0 1 2.25 2.25V18a2.25 2.25 0 0 1-2.25 2.25H6A2.25 2.25 0 0 1 3.75 18v-2.25ZM13.5 15.75a2.25 2.25 0 0 1 2.25-2.25H18a2.25 2.25 0 0 1 2.25 2.25V18A2.25 2.25 0 0 1 18 20.25h-2.25A2.25 2.25 0 0 1 13.5 18v-2.25Z" />
</svg>